<svg class="main-svg" xmlns="http://www.w3.org/2000/svg" xmlns:xlink="http://www.w3.org/1999/xlink" width="700" height="500" style="" viewBox="0 0 700 500"><rect x="0" y="0" width="700" height="500" style="fill: rgb(255, 255, 255); fill-opacity: 1;"/><defs id="defs-26ef0b"><g class="clips"><clipPath id="clip26ef0bxyplot" class="plotclip"><rect width="540" height="260"/></clipPath><clipPath class="axesclip" id="clip26ef0bx"><rect x="80" y="0" width="540" height="500"/></clipPath><clipPath class="axesclip" id="clip26ef0by"><rect x="0" y="160" width="700" height="260"/></clipPath><clipPath class="axesclip" id="clip26ef0bxy"><rect x="80" y="160" width="540" height="260"/></clipPath></g><g class="gradients"/><g class="patterns"/></defs><g class="bglayer"/><g class="layer-below"><g class="imagelayer"/><g class="shapelayer"/></g><g class="cartesianlayer"><g class="subplot xy"><g class="layer-subplot"><g class="shapelayer"/><g class="imagelayer"/></g><g class="minor-gridlayer"><g class="x"/><g class="y"/></g><g class="gridlayer"><g class="x"><path class="xgrid crisp" transform="translate(135.86,0)" d="M0,160v260" style="stroke: rgb(255, 255, 255); stroke-opacity: 1; stroke-width: 1px;"/><path class="xgrid crisp" transform="translate(266.21000000000004,0)" d="M0,160v260" style="stroke: rgb(255, 255, 255); stroke-opacity: 1; stroke-width: 1px;"/><path class="xgrid crisp" transform="translate(396.55,0)" d="M0,160v260" style="stroke: rgb(255, 255, 255); stroke-opacity: 1; stroke-width: 1px;"/><path class="xgrid crisp" transform="translate(526.9,0)" d="M0,160v260" style="stroke: rgb(255, 255, 255); stroke-opacity: 1; stroke-width: 1px;"/></g><g class="y"><path class="ygrid crisp" transform="translate(0,406.6)" d="M80,0h540" style="stroke: rgb(238, 238, 238); stroke-opacity: 1; stroke-width: 1px;"/><path class="ygrid crisp" transform="translate(0,369.85)" d="M80,0h540" style="stroke: rgb(238, 238, 238); stroke-opacity: 1; stroke-width: 1px;"/><path class="ygrid crisp" transform="translate(0,333.1)" d="M80,0h540" style="stroke: rgb(238, 238, 238); stroke-opacity: 1; stroke-width: 1px;"/><path class="ygrid crisp" transform="translate(0,259.6)" d="M80,0h540" style="stroke: rgb(238, 238, 238); stroke-opacity: 1; stroke-width: 1px;"/><path class="ygrid crisp" transform="translate(0,222.85)" d="M80,0h540" style="stroke: rgb(238, 238, 238); stroke-opacity: 1; stroke-width: 1px;"/><path class="ygrid crisp" transform="translate(0,186.1)" d="M80,0h540" style="stroke: rgb(238, 238, 238); stroke-opacity: 1; stroke-width: 1px;"/></g></g><g class="zerolinelayer"><path class="yzl zl crisp" transform="translate(0,296.35)" d="M80,0h540" style="stroke: rgb(255, 255, 255); stroke-opacity: 1; stroke-width: 2px;"/></g><g class="layer-between"><g class="shapelayer"/><g class="imagelayer"/></g><path class="xlines-below"/><path class="ylines-below"/><g class="overlines-below"/><g class="xaxislayer-below"/><g class="yaxislayer-below"/><g class="overaxes-below"/><g class="overplot"><g class="xy" transform="translate(80,160)" clip-path="url(#clip26ef0bxyplot)"><g class="scatterlayer mlayer"><g class="trace scatter trace359491" style="stroke-miterlimit: 2; opacity: 1;"><g class="fills"/><g class="errorbars"/><g class="lines"><path class="js-line" d="M0,110.2L18.62,118.95L37.24,122.92L55.86,116.04L74.48,103.51L93.1,143.2L111.72,159.96L130.34,167.13L148.97,169.88L167.59,171.17L186.21,161.47L204.83,162.42L223.45,150.57L242.07,161.82L260.69,150.09L279.31,179.47L297.93,198.22L316.55,202.07L335.17,210.05L353.79,212.99L372.41,229.05L391.03,213.17L409.66,216.81L428.28,217.55L446.9,209.46L465.52,223.28L484.14,223.28L502.76,223.19L521.38,193.95L540,183.92" style="vector-effect: none; fill: none; stroke: rgb(203, 136, 151); stroke-opacity: 1; stroke-width: 2px; opacity: 1;"/></g><g class="points"/><g class="text"/></g><g class="trace scatter trace4fc209" style="stroke-miterlimit: 2; opacity: 1;"><g class="fills"/><g class="errorbars"/><g class="lines"><path class="js-line" d="M0,153.03L18.62,112.52L37.24,98.13L55.86,105.48L74.48,101.66L93.1,130.98L111.72,127.77L130.34,116.04L148.97,118.4L167.59,114.54L186.21,111.73L204.83,123.05L223.45,149.73L242.07,147.08L260.69,156.8L279.31,166.72L297.93,166.67L316.55,168.15L335.17,161.1L353.79,166.39L372.41,156.67L391.03,170.45L409.66,163.51L428.28,164.83L446.9,171L465.52,136.27L484.14,109.76L502.76,90.36L521.38,100.48L540,92.49" style="vector-effect: none; fill: none; stroke: rgb(148, 173, 224); stroke-opacity: 1; stroke-width: 2px; opacity: 1;"/></g><g class="points"/><g class="text"/></g><g class="trace scatter trace6fbeda" style="stroke-miterlimit: 2; opacity: 1;"><g class="fills"/><g class="errorbars"/><g class="lines"><path class="js-line" d="M0,163.14L18.62,151.38L37.24,187.39L55.86,213.47L74.48,216.87L93.1,217.67L111.72,247L130.34,211.45L148.97,201.89L167.59,220.08L186.21,218.61L204.83,238.62L223.45,219.88L242.07,220.43L260.69,232.78L297.93,207.92L316.55,184.4L335.17,170.54L353.79,166.1L372.41,163.47L391.03,172.29L409.66,167.99L428.28,162.75L446.9,162.26L465.52,167.38L484.14,153.05L502.76,168.49L521.38,174.4L540,175.32" style="vector-effect: none; fill: none; stroke: rgb(243, 186, 112); stroke-opacity: 1; stroke-width: 2px; opacity: 1;"/></g><g class="points"/><g class="text"/></g><g class="trace scatter trace56490c" style="stroke-miterlimit: 2; opacity: 1;"><g class="fills"/><g class="errorbars"/><g class="lines"><path class="js-line" d="M0,135.1L18.62,136.02L37.24,146.58L55.86,153.47L74.48,153.88L93.1,133.89L111.72,142.58L130.34,132.78L148.97,115.7L167.59,110.55L186.21,131.72L204.83,126.22L223.45,130.19L242.07,130.49L260.69,121.39L279.31,148.73L297.93,137.71L316.55,118.36L335.17,138.94L353.79,157.59L372.41,135.26L391.03,132.62L409.66,134.42L428.28,143.24L446.9,157.09L465.52,154.23L484.14,144.53L502.76,145.37L521.38,150.39L540,154.76" style="vector-effect: none; fill: none; stroke: rgb(232, 97, 193); stroke-opacity: 1; stroke-width: 2px; opacity: 1;"/></g><g class="points"/><g class="text"/></g><g class="trace scatter trace2de31e" style="stroke-miterlimit: 2; opacity: 1;"><g class="fills"/><g class="errorbars"/><g class="lines"><path class="js-line" d="M0,132.95L18.62,101.71L37.24,100.11L74.48,98.94L93.1,95.96L111.72,89.71L130.34,120.95L148.97,119.19L167.59,122L204.83,118.03L223.45,120.56L242.07,125.97L260.69,119.92L279.31,109.78L297.93,87.33L316.55,72.77L335.17,66.75L353.79,70.7L372.41,98.61L391.03,104.27L409.66,93.39L428.28,90.08L446.9,47.75L465.52,15.63L484.14,13L502.76,37.81L521.38,39.35L540,60.02" style="vector-effect: none; fill: none; stroke: rgb(153, 202, 205); stroke-opacity: 1; stroke-width: 2px; opacity: 1;"/></g><g class="points"/><g class="text"/></g></g></g></g><g class="zerolinelayer-above"/><path class="xlines-above crisp" d="M79,420.5H621M79,159.5H621" style="fill: none; stroke-width: 1px; stroke: rgb(204, 204, 204); stroke-opacity: 1;"/><path class="ylines-above crisp" d="M79.5,160V420M620.5,160V420" style="fill: none; stroke-width: 1px; stroke: rgb(204, 204, 204); stroke-opacity: 1;"/><g class="overlines-above"/><g class="xaxislayer-above"><path class="xtick ticks crisp" d="M0,421v5M0,159v-5" transform="translate(135.86,0)" style="stroke: rgb(0, 0, 0); stroke-opacity: 0; stroke-width: 1px;"/><path class="xtick ticks crisp" d="M0,421v5M0,159v-5" transform="translate(266.21000000000004,0)" style="stroke: rgb(0, 0, 0); stroke-opacity: 0; stroke-width: 1px;"/><path class="xtick ticks crisp" d="M0,421v5M0,159v-5" transform="translate(396.55,0)" style="stroke: rgb(0, 0, 0); stroke-opacity: 0; stroke-width: 1px;"/><path class="xtick ticks crisp" d="M0,421v5M0,159v-5" transform="translate(526.9,0)" style="stroke: rgb(0, 0, 0); stroke-opacity: 0; stroke-width: 1px;"/><g class="xtick"><text text-anchor="middle" x="0" y="440.4" transform="translate(135.86,0)" style="font-family: 'IBM Plex Sans', sans-serif; font-size: 12px; fill: rgb(119, 119, 119); fill-opacity: 1; white-space: pre;"><tspan class="line" dy="0em" x="0" y="440.4">Sep 28</tspan><tspan class="line" dy="1.3em" x="0" y="440.4">2025</tspan></text></g><g class="xtick"><text text-anchor="middle" x="0" y="440.4" style="font-family: 'IBM Plex Sans', sans-serif; font-size: 12px; fill: rgb(119, 119, 119); fill-opacity: 1; white-space: pre;" transform="translate(266.21000000000004,0)">Oct 5</text></g><g class="xtick"><text text-anchor="middle" x="0" y="440.4" style="font-family: 'IBM Plex Sans', sans-serif; font-size: 12px; fill: rgb(119, 119, 119); fill-opacity: 1; white-space: pre;" transform="translate(396.55,0)">Oct 12</text></g><g class="xtick"><text text-anchor="middle" x="0" y="440.4" style="font-family: 'IBM Plex Sans', sans-serif; font-size: 12px; fill: rgb(119, 119, 119); fill-opacity: 1; white-space: pre;" transform="translate(526.9,0)">Oct 19</text></g></g><g class="yaxislayer-above"><path class="ytick ticks crisp" d="M79,0h-5M621,0h5" transform="translate(0,406.6)" style="stroke: rgb(0, 0, 0); stroke-opacity: 0; stroke-width: 1px;"/><path class="ytick ticks crisp" d="M79,0h-5M621,0h5" transform="translate(0,369.85)" style="stroke: rgb(0, 0, 0); stroke-opacity: 0; stroke-width: 1px;"/><path class="ytick ticks crisp" d="M79,0h-5M621,0h5" transform="translate(0,333.1)" style="stroke: rgb(0, 0, 0); stroke-opacity: 0; stroke-width: 1px;"/><path class="ytick ticks crisp" d="M79,0h-5M621,0h5" transform="translate(0,296.35)" style="stroke: rgb(0, 0, 0); stroke-opacity: 0; stroke-width: 1px;"/><path class="ytick ticks crisp" d="M79,0h-5M621,0h5" transform="translate(0,259.6)" style="stroke: rgb(0, 0, 0); stroke-opacity: 0; stroke-width: 1px;"/><path class="ytick ticks crisp" d="M79,0h-5M621,0h5" transform="translate(0,222.85)" style="stroke: rgb(0, 0, 0); stroke-opacity: 0; stroke-width: 1px;"/><path class="ytick ticks crisp" d="M79,0h-5M621,0h5" transform="translate(0,186.1)" style="stroke: rgb(0, 0, 0); stroke-opacity: 0; stroke-width: 1px;"/><g class="ytick"><text text-anchor="end" x="71.6" y="4.199999999999999" transform="translate(0,406.6)" style="font-family: 'IBM Plex Sans', sans-serif; font-size: 12px; fill: rgb(119, 119, 119); fill-opacity: 1; white-space: pre;">−6000</text></g><g class="ytick"><text text-anchor="end" x="71.6" y="4.199999999999999" style="font-family: 'IBM Plex Sans', sans-serif; font-size: 12px; fill: rgb(119, 119, 119); fill-opacity: 1; white-space: pre;" transform="translate(0,369.85)">−4000</text></g><g class="ytick"><text text-anchor="end" x="71.6" y="4.199999999999999" style="font-family: 'IBM Plex Sans', sans-serif; font-size: 12px; fill: rgb(119, 119, 119); fill-opacity: 1; white-space: pre;" transform="translate(0,333.1)">−2000</text></g><g class="ytick"><text text-anchor="end" x="71.6" y="4.199999999999999" style="font-family: 'IBM Plex Sans', sans-serif; font-size: 12px; fill: rgb(119, 119, 119); fill-opacity: 1; white-space: pre;" transform="translate(0,296.35)">0</text></g><g class="ytick"><text text-anchor="end" x="71.6" y="4.199999999999999" style="font-family: 'IBM Plex Sans', sans-serif; font-size: 12px; fill: rgb(119, 119, 119); fill-opacity: 1; white-space: pre;" transform="translate(0,259.6)">2000</text></g><g class="ytick"><text text-anchor="end" x="71.6" y="4.199999999999999" style="font-family: 'IBM Plex Sans', sans-serif; font-size: 12px; fill: rgb(119, 119, 119); fill-opacity: 1; white-space: pre;" transform="translate(0,222.85)">4000</text></g><g class="ytick"><text text-anchor="end" x="71.6" y="4.199999999999999" style="font-family: 'IBM Plex Sans', sans-serif; font-size: 12px; fill: rgb(119, 119, 119); fill-opacity: 1; white-space: pre;" transform="translate(0,186.1)">6000</text></g></g><g class="overaxes-above"/></g></g><g class="polarlayer"/><g class="smithlayer"/><g class="ternarylayer"/><g class="geolayer"/><g class="funnelarealayer"/><g class="pielayer"/><g class="iciclelayer"/><g class="treemaplayer"/><g class="sunburstlayer"/><g class="glimages"/><defs id="topdefs-26ef0b"><g class="clips"/><clipPath id="legend26ef0b"><rect width="391" height="29" x="0" y="0"/></clipPath></defs><g class="layer-above"><g class="imagelayer"/><g class="shapelayer"/></g><g class="infolayer"><g class="legend" pointer-events="all" transform="translate(154.5,123.19999999999999)"><rect class="bg" shape-rendering="crispEdges" style="stroke: rgb(68, 68, 68); stroke-opacity: 1; fill: rgb(255, 255, 255); fill-opacity: 1; stroke-width: 0px;" width="391" height="29" x="0" y="0"/><g class="scrollbox" transform="" clip-path="url(#legend26ef0b)"><g class="groups"><g class="traces" transform="translate(0,14.5)" style="opacity: 1;"><text class="legendtext" text-anchor="start" x="40" y="4.680000000000001" style="font-family: 'IBM Plex Sans', sans-serif; font-size: 12px; fill: rgb(119, 119, 119); fill-opacity: 1; white-space: pre;">Lion</text><g class="layers" style="opacity: 1;"><g class="legendfill"/><g class="legendlines"><path class="js-line" d="M5,0h30" style="fill: none; stroke: rgb(203, 136, 151); stroke-opacity: 1; stroke-width: 2px;"/></g><g class="legendsymbols"><g class="legendpoints"/></g></g><rect class="legendtoggle" x="0" y="-9.5" width="65.0546875" height="19" style="fill: rgb(0, 0, 0); fill-opacity: 0;"/></g><g class="traces" transform="translate(67.5546875,14.5)" style="opacity: 1;"><text class="legendtext" text-anchor="start" x="40" y="4.680000000000001" style="font-family: 'IBM Plex Sans', sans-serif; font-size: 12px; fill: rgb(119, 119, 119); fill-opacity: 1; white-space: pre;">Tiger</text><g class="layers" style="opacity: 1;"><g class="legendfill"/><g class="legendlines"><path class="js-line" d="M5,0h30" style="fill: none; stroke: rgb(148, 173, 224); stroke-opacity: 1; stroke-width: 2px;"/></g><g class="legendsymbols"><g class="legendpoints"/></g></g><rect class="legendtoggle" x="0" y="-9.5" width="69.625" height="19" style="fill: rgb(0, 0, 0); fill-opacity: 0;"/></g><g class="traces" transform="translate(139.6796875,14.5)" style="opacity: 1;"><text class="legendtext" text-anchor="start" x="40" y="4.680000000000001" style="font-family: 'IBM Plex Sans', sans-serif; font-size: 12px; fill: rgb(119, 119, 119); fill-opacity: 1; white-space: pre;">Elephant</text><g class="layers" style="opacity: 1;"><g class="legendfill"/><g class="legendlines"><path class="js-line" d="M5,0h30" style="fill: none; stroke: rgb(243, 186, 112); stroke-opacity: 1; stroke-width: 2px;"/></g><g class="legendsymbols"><g class="legendpoints"/></g></g><rect class="legendtoggle" x="0" y="-9.5" width="90.5625" height="19" style="fill: rgb(0, 0, 0); fill-opacity: 0;"/></g><g class="traces" transform="translate(232.7421875,14.5)" style="opacity: 1;"><text class="legendtext" text-anchor="start" x="40" y="4.680000000000001" style="font-family: 'IBM Plex Sans', sans-serif; font-size: 12px; fill: rgb(119, 119, 119); fill-opacity: 1; white-space: pre;">Giraffe</text><g class="layers" style="opacity: 1;"><g class="legendfill"/><g class="legendlines"><path class="js-line" d="M5,0h30" style="fill: none; stroke: rgb(232, 97, 193); stroke-opacity: 1; stroke-width: 2px;"/></g><g class="legendsymbols"><g class="legendpoints"/></g></g><rect class="legendtoggle" x="0" y="-9.5" width="78.921875" height="19" style="fill: rgb(0, 0, 0); fill-opacity: 0;"/></g><g class="traces" transform="translate(314.1640625,14.5)" style="opacity: 1;"><text class="legendtext" text-anchor="start" x="40" y="4.680000000000001" style="font-family: 'IBM Plex Sans', sans-serif; font-size: 12px; fill: rgb(119, 119, 119); fill-opacity: 1; white-space: pre;">Zebra</text><g class="layers" style="opacity: 1;"><g class="legendfill"/><g class="legendlines"><path class="js-line" d="M5,0h30" style="fill: none; stroke: rgb(153, 202, 205); stroke-opacity: 1; stroke-width: 2px;"/></g><g class="legendsymbols"><g class="legendpoints"/></g></g><rect class="legendtoggle" x="0" y="-9.5" width="73.71875" height="19" style="fill: rgb(0, 0, 0); fill-opacity: 0;"/></g></g></g><rect class="scrollbar" rx="20" ry="3" width="0" height="0" style="fill: rgb(128, 139, 164); fill-opacity: 1;" x="0" y="0"/></g><g class="g-gtitle"><text class="gtitle" x="350" y="40" text-anchor="middle" dy="0.7em" style="opacity: 1; font-family: 'IBM Plex Sans', sans-serif; font-size: 17px; fill: rgb(68, 68, 68); fill-opacity: 1; font-weight: 600; white-space: pre;">Demo Chart</text><text class="gtitle-subtitle" x="350" y="75.60000152587891" text-anchor="middle" dy="0.7em" style="opacity: 1; font-family: 'IBM Plex Sans', sans-serif; font-size: 12px; fill: rgb(119, 119, 119); fill-opacity: 1; white-space: pre;">Some subtitle</text></g><g class="g-xtitle"/><g class="g-ytitle"/></g></svg>